# xmcd
#
# Track frame offsets:
# 150
# 14095
# 28465
# 42605
# 59282
# 78757
# 96965
# 112480
# 125317
# 139900
# 154402
# 165710
# 184740
# 203525
# 220015
# 233835
# 248162
# 263662
# 276495
# 291970
#
# Disc length: 4107 seconds
#
#
# Revision: 0
# Processed by: cddbd v1.5.1PL2 Copyright (c) Steve Scherf et al.
# Submitted via: FreeRIP 2.945 
#
DISCID=34100914
DTITLE=Rionegro and Solimões - Millennium
DYEAR=2002
DGENRE=Sertanejo BR
TTITLE0=Peão apaixonado
TTITLE1=De São Paulo a Belém
TTITLE2=Uma noite no forró
TTITLE3=Antes de sair
TTITLE4=Frio da madrugada
TTITLE5=Boiadeiro e violeiro
TTITLE6=A saudade é quem manda
TTITLE7=Tô doidão
TTITLE8=Chora,viola
TTITLE9=Como esquecer um amor
TTITLE10=Rei da festa
TTITLE11=Laço da paixão
TTITLE12=É por você
TTITLE13=A gente se entrega
TTITLE14=Eu quero fazer amor
TTITLE15=No pique do rodeio
TTITLE16=Quero sua volta
TTITLE17=Chove
TTITLE18=De cara cheia
TTITLE19=Preciso te ver
EXTD=
EXTT0=
EXTT1=
EXTT2=
EXTT3=
EXTT4=
EXTT5=
EXTT6=
EXTT7=
EXTT8=
EXTT9=
EXTT10=
EXTT11=
EXTT12=
EXTT13=
EXTT14=
EXTT15=
EXTT16=
EXTT17=
EXTT18=
EXTT19=
PLAYORDER=
